# Blender 4.3.2
# www.blender.org
mtllib medkit.mtl
o Cube
v -3.000000 -1.000000 0.000000
v -3.000000 1.000000 0.000000
v -3.000000 -1.000000 -1.000000
v -3.000000 1.000000 -1.000000
v 1.000000 -1.000000 0.000000
v 1.000000 1.000000 0.000000
v 1.000000 -1.000000 -1.000000
v 1.000000 1.000000 -1.000000
v -2.064956 0.983883 -0.004059
v -2.064956 1.883883 -0.004059
v -2.064956 0.983883 -1.004059
v -2.064956 1.883883 -1.004059
v 0.035044 0.983883 -0.004059
v 0.035044 1.883883 -0.004059
v 0.035044 0.983883 -1.004059
v 0.035044 1.883883 -1.004059
v -2.064956 0.983883 -0.504059
v 0.035044 0.983883 -0.504059
v -2.064956 0.983883 -0.254059
v -2.064956 1.658883 -0.004059
v -1.539956 0.983883 -1.004059
v 0.035044 0.983883 -0.754059
v -0.489956 0.983883 -0.004059
v -2.064956 0.983883 -0.754059
v -2.064956 1.658883 -1.004059
v -0.489956 0.983883 -1.004059
v 0.035044 1.658883 -1.004059
v 0.035044 0.983883 -0.254059
v 0.035044 1.658883 -0.004059
v -1.539956 0.983883 -0.004059
v -1.539956 0.983883 -0.504059
v -0.489956 0.983883 -0.504059
v -1.539956 1.658883 -1.004059
v -0.489956 1.658883 -0.004059
v -0.489956 0.983883 -0.754059
v -1.539956 0.983883 -0.754059
v -1.539956 0.983883 -0.254059
v -0.489956 0.983883 -0.254059
v -1.539956 1.658883 -0.004059
v -0.489956 1.658883 -1.004059
vn -1.0000 -0.0000 -0.0000
vn -0.0000 -0.0000 -1.0000
vn 1.0000 -0.0000 -0.0000
vn -0.0000 -0.0000 1.0000
vn -0.0000 -1.0000 -0.0000
vn -0.0000 1.0000 -0.0000
vt -0.129281 -2.670078
vt 1.145719 -2.630235
vt 1.145719 -1.395078
vt -0.129281 -1.395078
vt -0.347621 -0.854302
vt 1.369840 -0.854302
vt 1.369840 1.865233
vt -0.347621 1.865233
vt -0.276928 -2.014881
vt 0.998072 -2.014881
vt 0.998072 -0.739881
vt -0.276928 -0.739881
vt -0.342995 -0.826242
vt 1.349032 -0.826242
vt 1.349032 1.853018
vt -0.342995 1.853018
vt -1.404281 -0.120078
vt -0.129281 -0.120078
vt -0.129281 1.154922
vt -1.404281 1.154922
vt 1.145719 -0.120078
vt 2.420719 -0.120078
vt 2.420719 1.154922
vt 1.145719 1.154922
vt -0.448031 0.836172
vt -0.129281 0.836172
vt -0.448031 1.154922
vt -2.041781 -2.670078
vt -0.448031 0.198672
vt -0.129281 0.198672
vt -0.129281 0.517422
vt -0.448031 0.517422
vt -1.085531 1.154922
vt -0.448031 -0.120078
vt -1.404281 0.198672
vt -1.085531 0.198672
vt -1.085531 0.517422
vt -1.404281 0.517422
vt -1.085531 -0.120078
vt -1.404281 0.836172
vt -1.085531 0.836172
s 0
usemtl Material.004
f 1/1/1 2/2/1 4/3/1 3/4/1
f 7/9/3 8/10/3 6/11/3 5/12/3
f 3/17/5 7/18/5 5/19/5 1/20/5
f 8/21/6 4/22/6 2/23/6 6/24/6
f 38/25/5 28/26/5 13/19/5 23/27/5
f 12/28/6 10/28/6 14/28/6 16/28/6
f 35/29/5 22/30/5 18/31/5 32/32/5
f 10/28/1 12/28/1 11/28/1 9/28/1
f 39/28/4 20/28/4 9/20/4 30/33/4
f 26/34/5 15/18/5 22/30/5 35/29/5
f 24/35/5 36/36/5 31/37/5 17/38/5
f 11/17/5 21/39/5 36/36/5 24/35/5
f 19/40/5 37/41/5 30/33/5 9/20/5
f 17/38/5 31/37/5 37/41/5 19/40/5
f 32/32/5 18/31/5 28/26/5 38/25/5
f 33/28/5 40/28/5 34/28/5 39/28/5
f 23/27/4 13/19/4 29/28/4 34/28/4
f 20/28/4 39/28/4 34/28/4 29/28/4 14/28/4 10/28/4
f 16/28/3 14/28/3 13/28/3 15/28/3
f 15/18/2 26/34/2 40/28/2 27/28/2
f 21/39/2 11/17/2 25/28/2 33/28/2
f 12/28/2 16/28/2 27/28/2 40/28/2 33/28/2 25/28/2
f 39/28/3 30/33/3 21/39/3 33/28/3
f 40/28/1 26/34/1 23/27/1 34/28/1
usemtl Material.005
f 3/5/2 4/6/2 8/7/2 7/8/2
f 5/13/4 6/14/4 2/15/4 1/16/4
